<?xml version="1.0" encoding="UTF-8" standalone="no"?>
<svg
   xmlns:dc="http://purl.org/dc/elements/1.1/"
   xmlns:cc="http://creativecommons.org/ns#"
   xmlns:rdf="http://www.w3.org/1999/02/22-rdf-syntax-ns#"
   xmlns:svg="http://www.w3.org/2000/svg"
   xmlns="http://www.w3.org/2000/svg"
   viewBox="0 0 85.333336 85.333336"
   height="85.333336"
   width="85.333336"
   xml:space="preserve"
   id="svg2"
   version="1.1"><metadata
     id="metadata8"><rdf:RDF><cc:Work
         rdf:about=""><dc:format>image/svg+xml</dc:format><dc:type
           rdf:resource="http://purl.org/dc/dcmitype/StillImage" /></cc:Work></rdf:RDF></metadata><defs
     id="defs6"><clipPath
       id="clipPath18"
       clipPathUnits="userSpaceOnUse"><path
         id="path16"
         d="M 0,64 H 64 V 0 H 0 Z" /></clipPath><clipPath
       id="clipPath30"
       clipPathUnits="userSpaceOnUse"><path
         id="path28"
         d="M 0,64 H 64 V 0 H 0 Z" /></clipPath><clipPath
       id="clipPath42"
       clipPathUnits="userSpaceOnUse"><path
         id="path40"
         d="M 0,64 H 64 V 0 H 0 Z" /></clipPath></defs><g
     transform="matrix(1.3333333,0,0,-1.3333333,0,85.333333)"
     id="g10"><g
       id="g12"><g
         clip-path="url(#clipPath18)"
         id="g14"><g
           transform="translate(46,14)"
           id="g20"><path
             id="path22"
             style="fill:#f6f6f6;fill-opacity:1;fill-rule:nonzero;stroke:none"
             d="m 0,0 c -7.686,0 -14.449,4.965 -16.953,12 h -6.684 C -25.736,8.355 -29.65,6 -34,6 c -6.617,0 -12,5.383 -12,12 0,6.617 5.383,12 12,12 4.35,0 8.264,-2.355 10.363,-6 h 6.686 C -14.449,31.035 -7.686,36 0,36 9.926,36 18,27.926 18,18 18,8.074 9.926,0 0,0" /></g></g></g><g
       id="g24"><g
         clip-path="url(#clipPath30)"
         id="g26"><g
           transform="translate(46,26)"
           id="g32"><path
             id="path34"
             style="fill:#424242;fill-opacity:1;fill-rule:nonzero;stroke:none"
             d="m 0,0 c -3.314,0 -6,2.684 -6,6 0,3.313 2.686,6 6,6 C 3.314,12 6,9.313 6,6 6,2.684 3.314,0 0,0 M 0,20 C -7.049,20 -12.867,14.781 -13.84,8 h -12.443 c -0.893,3.443 -3.994,6 -7.717,6 -4.418,0 -8,-3.582 -8,-8 0,-4.418 3.582,-8 8,-8 3.723,0 6.824,2.557 7.717,6 H -13.84 C -12.867,-2.781 -7.049,-8 0,-8 7.73,-8 14,-1.73 14,6 14,13.73 7.73,20 0,20" /></g></g></g><g
       id="g36"><g
         clip-path="url(#clipPath42)"
         id="g38"><g
           transform="translate(52,32)"
           id="g44"><path
             id="path46"
             style="fill:#f0eff1;fill-opacity:1;fill-rule:nonzero;stroke:none"
             d="m 0,0 c 0,-3.313 -2.686,-6 -6,-6 -3.314,0 -6,2.687 -6,6 0,3.313 2.686,6 6,6 3.314,0 6,-2.687 6,-6" /></g></g></g></g></svg>