<?xml version="1.0" encoding="UTF-8" standalone="no"?>
<svg
   xmlns:dc="http://purl.org/dc/elements/1.1/"
   xmlns:cc="http://creativecommons.org/ns#"
   xmlns:rdf="http://www.w3.org/1999/02/22-rdf-syntax-ns#"
   xmlns:svg="http://www.w3.org/2000/svg"
   xmlns="http://www.w3.org/2000/svg"
   viewBox="0 0 85.333336 85.333336"
   height="85.333336"
   width="85.333336"
   xml:space="preserve"
   id="svg2"
   version="1.1"><metadata
     id="metadata8"><rdf:RDF><cc:Work
         rdf:about=""><dc:format>image/svg+xml</dc:format><dc:type
           rdf:resource="http://purl.org/dc/dcmitype/StillImage" /></cc:Work></rdf:RDF></metadata><defs
     id="defs6" /><g
     transform="matrix(1.3333333,0,0,-1.3333333,0,85.333333)"
     id="g10"><g
       transform="translate(30.789,63.9999)"
       id="g12"><path
         id="path14"
         style="fill:#f6f6f6;fill-opacity:1;fill-rule:nonzero;stroke:none"
         d="M 0,0 -26.789,-17.86 V -46.139 L 0,-64 h 2.422 l 26.789,17.861 V -17.86 L 2.422,0 Z" /></g><g
       transform="translate(52,22.1406)"
       id="g16"><path
         id="path18"
         style="fill:#424242;fill-opacity:1;fill-rule:nonzero;stroke:none"
         d="M 0,0 -18,-12 V 4.789 l 18,12 z M -38.59,20.656 -20,33.055 -1.41,20.656 -20,8.266 Z M -22,-12 -40,0 v 16.789 l 18,-12 z m 2,49.859 -24,-16 v -24 l 24,-16 24,16 v 24 z" /></g><g
       transform="translate(12,22.1406)"
       id="g20"><path
         id="path22"
         style="fill:#f0eff1;fill-opacity:1;fill-rule:nonzero;stroke:none"
         d="M 0,0 18,-12 V 4.789 l -18,12 z" /></g><g
       transform="translate(32,55.1953)"
       id="g24"><path
         id="path26"
         style="fill:#f0eff1;fill-opacity:1;fill-rule:nonzero;stroke:none"
         d="M 0,0 -18.59,-12.398 0,-24.789 18.59,-12.398 Z" /></g><g
       transform="translate(34,26.9297)"
       id="g28"><path
         id="path30"
         style="fill:#f0eff1;fill-opacity:1;fill-rule:nonzero;stroke:none"
         d="m 0,0 v -16.789 l 18,12 V 12 Z" /></g></g></svg>